<svg width="182" height="248" viewBox="0 0 182 248" fill="none" xmlns="http://www.w3.org/2000/svg">
<path opacity="0.05" d="M181.891 14.4522C181.891 15.2869 181.891 16.1043 181.891 16.9043C181.891 17.7043 181.891 18.2608 181.891 18.9217C181.891 19.5826 181.891 20.4521 181.891 21.2174V231.652H118.525V122.609L0.668045 242.835C-34.2555 250.652 -70.6061 249.581 -105 239.721L-36.706 169.791L67.9097 63.1825H-56.191V0H181.891C181.891 0.730434 181.891 1.46086 181.891 2.20869C182.136 4.85216 181.891 7.5652 181.891 10.2261C181.891 10.8174 181.891 11.3913 181.891 11.9652C181.891 12.5391 181.873 13.6174 181.891 14.4522Z" fill="white"/>
</svg>
