<svg width="22" height="24" viewBox="0 0 22 24" fill="none" xmlns="http://www.w3.org/2000/svg">
<path d="M19.5556 2.4H14.4467C13.9333 1.008 12.5889 0 11 0C9.41111 0 8.06667 1.008 7.55333 2.4H2.44444C1.1 2.4 0 3.48 0 4.8V21.6C0 22.92 1.1 24 2.44444 24H19.5556C20.9 24 22 22.92 22 21.6V4.8C22 3.48 20.9 2.4 19.5556 2.4ZM11 2.4C11.6722 2.4 12.2222 2.94 12.2222 3.6C12.2222 4.26 11.6722 4.8 11 4.8C10.3278 4.8 9.77778 4.26 9.77778 3.6C9.77778 2.94 10.3278 2.4 11 2.4ZM7.68778 18.348L4.52222 15.24C4.40907 15.1289 4.31931 14.997 4.25807 14.8519C4.19683 14.7067 4.16531 14.5511 4.16531 14.394C4.16531 14.2369 4.19683 14.0813 4.25807 13.9361C4.31931 13.791 4.40907 13.6591 4.52222 13.548C4.63538 13.4369 4.76971 13.3488 4.91756 13.2886C5.0654 13.2285 5.22386 13.1976 5.38389 13.1976C5.54392 13.1976 5.70237 13.2285 5.85022 13.2886C5.99806 13.3488 6.1324 13.4369 6.24555 13.548L8.55556 15.804L15.7422 8.748C15.8554 8.6369 15.9897 8.54877 16.1376 8.48865C16.2854 8.42852 16.4439 8.39758 16.6039 8.39758C16.7639 8.39758 16.9224 8.42852 17.0702 8.48865C17.2181 8.54877 17.3524 8.6369 17.4656 8.748C17.5787 8.8591 17.6685 8.99099 17.7297 9.13615C17.7909 9.28131 17.8225 9.43688 17.8225 9.594C17.8225 9.75112 17.7909 9.9067 17.7297 10.0519C17.6685 10.197 17.5787 10.3289 17.4656 10.44L9.41111 18.348C9.29804 18.4592 9.16373 18.5475 9.01587 18.6077C8.86802 18.6679 8.70952 18.6989 8.54944 18.6989C8.38937 18.6989 8.23087 18.6679 8.08301 18.6077C7.93516 18.5475 7.80085 18.4592 7.68778 18.348Z" fill="#004747"/>
</svg>
