<svg width="18" height="25" viewBox="0 0 18 25" fill="none" xmlns="http://www.w3.org/2000/svg">
<path d="M15.75 8.33333H14.625V5.95238C14.625 2.66667 12.105 0 9 0C5.895 0 3.375 2.66667 3.375 5.95238V8.33333H2.25C1.0125 8.33333 0 9.40476 0 10.7143V22.619C0 23.9286 1.0125 25 2.25 25H15.75C16.9875 25 18 23.9286 18 22.619V10.7143C18 9.40476 16.9875 8.33333 15.75 8.33333ZM5.5125 5.95238C5.5125 3.91667 7.07625 2.2619 9 2.2619C10.9237 2.2619 12.4875 3.91667 12.4875 5.95238V8.33333H5.5125V5.95238ZM13.5 17.8571H10.125V21.4286H7.875V17.8571H4.5V15.4762H7.875V11.9048H10.125V15.4762H13.5V17.8571Z" fill="white"/>
</svg>
