<svg width="26" height="18" viewBox="0 0 26 18" fill="none" xmlns="http://www.w3.org/2000/svg">
<path d="M24.6877 2.76429C24.2929 2.5884 23.8546 2.53119 23.4272 2.59976C22.9998 2.66834 22.6022 2.85968 22.2839 3.15L19.4903 5.72143V3.85714C19.4903 2.83416 19.0796 1.85309 18.3485 1.12973C17.6175 0.406377 16.626 0 15.5922 0H3.89805C2.86422 0 1.87274 0.406377 1.14171 1.12973C0.410686 1.85309 0 2.83416 0 3.85714V14.1429C0 15.1658 0.410686 16.1469 1.14171 16.8703C1.87274 17.5936 2.86422 18 3.89805 18H15.5922C16.626 18 17.6175 17.5936 18.3485 16.8703C19.0796 16.1469 19.4903 15.1658 19.4903 14.1429V12.2786L22.2969 14.85C22.71 15.2201 23.2468 15.4261 23.8041 15.4286C24.1134 15.4279 24.419 15.3621 24.7006 15.2357C25.0839 15.0823 25.4122 14.8193 25.6436 14.4804C25.8751 14.1415 25.9992 13.7419 26 13.3329V4.66714C25.9981 4.2566 25.8721 3.856 25.6383 3.51689C25.4044 3.17778 25.0733 2.91567 24.6877 2.76429Z" fill="#004747"/>
</svg>
