<svg width="26" height="26" viewBox="0 0 26 26" fill="none" xmlns="http://www.w3.org/2000/svg">
<path d="M25.4476 20.0922L19.5015 14.1463C18.3285 12.9733 16.5766 12.7448 15.165 13.4405L9.752 8.02773V4.87452L3.25236 0L0.00253888 3.24968L4.87727 9.74905H8.03061L13.4436 15.1618C12.753 16.5734 12.9764 18.3252 14.1494 19.4981L20.0956 25.444C20.8369 26.1853 22.0353 26.1853 22.7716 25.444L25.4476 22.7681C26.1839 22.0268 26.1839 20.8284 25.4476 20.0922V20.0922ZM16.8457 11.4247C18.2828 11.4247 19.6335 11.9832 20.649 12.9987L21.6341 13.9838C22.4364 13.6334 23.1981 13.146 23.8582 12.4859C25.7421 10.6021 26.3819 7.95157 25.7827 5.54477C25.671 5.08778 25.0972 4.93038 24.7621 5.2655L20.9842 9.04326L17.5363 8.46949L16.9625 5.02178L20.7404 1.24402C21.0756 0.908896 20.9131 0.335124 20.451 0.218338C18.0441 -0.375745 15.3935 0.264037 13.5147 2.14276C12.0675 3.58988 11.3871 5.49907 11.4226 7.40318L15.5915 11.5719C16.0028 11.4754 16.4294 11.4247 16.8457 11.4247ZM11.5699 15.5883L8.69073 12.7093L0.952095 20.4527C-0.317365 21.7221 -0.317365 23.7785 0.952095 25.0479C2.22156 26.3174 4.27808 26.3174 5.54754 25.0479L11.8238 18.772C11.4378 17.7615 11.3211 16.6597 11.5699 15.5883V15.5883ZM3.25236 23.9664C2.58208 23.9664 2.03368 23.418 2.03368 22.7478C2.03368 22.0725 2.57701 21.5291 3.25236 21.5291C3.92771 21.5291 4.47104 22.0725 4.47104 22.7478C4.47104 23.418 3.92771 23.9664 3.25236 23.9664Z" fill="#004747"/>
</svg>
