<svg width="20" height="22" viewBox="0 0 20 22" fill="none" xmlns="http://www.w3.org/2000/svg">
<path d="M15.7143 13.75C14.705 13.75 13.7774 14.086 13.0451 14.6478L8.46982 11.8955C8.60531 11.3056 8.60531 10.6943 8.46982 10.1044L13.0451 7.35213C13.7774 7.91403 14.705 8.25 15.7143 8.25C18.0812 8.25 20 6.40316 20 4.125C20 1.84684 18.0812 0 15.7143 0C13.3474 0 11.4286 1.84684 11.4286 4.125C11.4286 4.43257 11.4638 4.73215 11.5302 5.02051L6.95491 7.77283C6.22263 7.21097 5.295 6.875 4.28571 6.875C1.91879 6.875 0 8.72184 0 11C0 13.2782 1.91879 15.125 4.28571 15.125C5.295 15.125 6.22263 14.789 6.95491 14.2272L11.5302 16.9795C11.4626 17.2735 11.4285 17.5738 11.4286 17.875C11.4286 20.1532 13.3474 22 15.7143 22C18.0812 22 20 20.1532 20 17.875C20 15.5968 18.0812 13.75 15.7143 13.75Z" fill="white"/>
</svg>
