<svg width="30" height="30" viewBox="0 0 30 30" fill="none" xmlns="http://www.w3.org/2000/svg">
<path d="M14.985 0C6.705 0 0 6.72 0 15C0 23.28 6.705 30 14.985 30C23.28 30 30 23.28 30 15C30 6.72 23.28 0 14.985 0ZM21 21C20.8612 21.1391 20.6964 21.2494 20.5149 21.3246C20.3335 21.3999 20.139 21.4387 19.9425 21.4387C19.746 21.4387 19.5515 21.3999 19.3701 21.3246C19.1886 21.2494 19.0238 21.1391 18.885 21L13.95 16.065C13.8083 15.9261 13.6955 15.7604 13.6183 15.5776C13.541 15.3948 13.5008 15.1985 13.5 15V9C13.5 8.175 14.175 7.5 15 7.5C15.825 7.5 16.5 8.175 16.5 9V14.385L21 18.885C21.585 19.47 21.585 20.415 21 21Z" fill="#004747"/>
</svg>
